<svg xmlns="http://www.w3.org/2000/svg" viewBox="0 0 500 500"><g id="freepik--background-simple--inject-41"><path d="M467.39,328.68c-20.65,41.64-57.28,84.81-101.84,93.11-67.33,12.54-82.62,68.54-197.48,47.88A216,216,0,0,1,119.17,455,185,185,0,0,1,96.81,443.3c-63.52-39-90-109.64-83.7-179.07C21.33,172.91,84.87,137.31,125.79,117S225.05,4.42,338.13,23.76A209.37,209.37,0,0,1,388.4,38.81c36.73,16.44,72.26,46.71,90,86.4q2,4.47,3.74,9.1C504.86,194.56,495.54,271.91,467.39,328.68Z" style="fill:#92E3A9"></path><path d="M467.39,328.68c-20.65,41.64-57.28,84.81-101.84,93.11-67.33,12.54-82.62,68.54-197.48,47.88A216,216,0,0,1,119.17,455,185,185,0,0,1,96.81,443.3c-63.52-39-90-109.64-83.7-179.07C21.33,172.91,84.87,137.31,125.79,117S225.05,4.42,338.13,23.76A209.37,209.37,0,0,1,388.4,38.81c36.73,16.44,72.26,46.71,90,86.4q2,4.47,3.74,9.1C504.86,194.56,495.54,271.91,467.39,328.68Z" style="fill:#fff;opacity:0.8"></path></g><g id="freepik--Cake--inject-41"><ellipse cx="311.68" cy="321.61" rx="123.38" ry="55.6" style="opacity:0.11"></ellipse><ellipse cx="299.77" cy="348.88" rx="78.84" ry="37.52" style="fill:#fff"></ellipse><path d="M299.77,311.36c-43.54,0-78.83,16.8-78.83,37.52a18.13,18.13,0,0,0,.2,2.55c19.1-6.59,69.83-18.07,156.66,2.8a18.65,18.65,0,0,0,.81-5.35C378.61,328.16,343.31,311.36,299.77,311.36Z" style="fill:#dbdbdb"></path><ellipse cx="299.77" cy="348.88" rx="78.84" ry="37.52" style="fill:none;stroke:#263238;stroke-linecap:round;stroke-linejoin:round"></ellipse><path d="M452.64,245.72c-11.76-35.14-75.72-62-152.87-62-75.57,0-138.48,25.77-152.08,59.85l-2.73,4v9.85c0,40.69,69.31,73.68,154.81,73.68s154.81-33,154.81-73.68V249.5Z" style="fill:#ededed;stroke:#263238;stroke-linecap:round;stroke-linejoin:round"></path><ellipse cx="299.77" cy="247.54" rx="154.81" ry="73.68" style="fill:#fff;stroke:#263238;stroke-linecap:round;stroke-linejoin:round"></ellipse><path d="M347,239.5s67.51,27.25,72,26.43,7.32-5.69,10.17-12.6,3.25-16.67,3.66-21.55,1.62-66.7,1.62-66.7,4.07-75.23,2.85-80.11-11-8.13-11-8.13S317.36,49.6,314.1,49.6s-2.44,4.87,0,8.13S347,239.5,347,239.5Z" style="fill:#969696;stroke:#263238;stroke-linecap:round;stroke-linejoin:round"></path><polygon points="421.34 217.09 418.61 220.39 345.54 193.25 346.97 216.61 418.95 245.69 421.34 217.09" style="fill:#92E3A9;stroke:#263238;stroke-linecap:round;stroke-linejoin:round"></polygon><polyline points="350.31 163.7 422.77 184.67 421.82 213.27 418.61 220.39 353.17 195.63" style="fill:#e8e8e8;stroke:#263238;stroke-linecap:round;stroke-linejoin:round"></polyline><polygon points="350.31 163.7 422.77 184.67 424.68 156.07 351.74 133.66 350.31 163.7" style="fill:#92E3A9;stroke:#263238;stroke-linecap:round;stroke-linejoin:round"></polygon><polygon points="350.31 163.7 422.77 184.67 424.68 156.07 351.74 133.66 350.31 163.7" style="fill:#fff;stroke:#263238;stroke-linecap:round;stroke-linejoin:round;opacity:0.65"></polygon><polyline points="360.88 102.25 432.78 125.56 430.81 154.92 351.74 133.66 350.79 106.97" style="fill:#969696;stroke:#263238;stroke-linecap:round;stroke-linejoin:round"></polyline><path d="M427.54,121.75l9.53-12.43c.46-12.52.67-22.66.25-24.35-1.22-4.88-11-8.13-11-8.13S336.83,54.46,317.63,50.27l2.55,4.25,40.7,47.73Z" style="fill:#92E3A9;stroke:#263238;stroke-linecap:round;stroke-linejoin:round"></path><path d="M342.57,209l77.26,33.35,4.88-1.63L419,265.93a43.82,43.82,0,0,1-3.66-11c-.81-5.28-5.29-11.38-5.29-11.38L343,219.17Z" style="fill:#fff;stroke:#263238;stroke-linecap:round;stroke-linejoin:round"></path><path d="M429.19,253.33c2.84-6.92,3.25-16.67,3.66-21.55s1.62-66.7,1.62-66.7,4.07-75.23,2.85-80.11c-.53-2.13-2.69-4-5-5.32l-2.51,6.18s5.85,6-.26,31.68C423.83,141.76,418,245.93,418,265.86a3.31,3.31,0,0,0,1.07.07C423.49,265.12,426.34,260.24,429.19,253.33Z" style="fill:#fff;stroke:#263238;stroke-linecap:round;stroke-linejoin:round"></path><path d="M423.48,168.58c-1,12.16-1.93,25.08-2.72,37.49a19.1,19.1,0,0,0,12.89-2.33c.42-18.28.82-38.66.82-38.66s0-.49.08-1.39Z" style="fill:#e8e8e8;stroke:#263238;stroke-linecap:round;stroke-linejoin:round"></path><path d="M430.47,113.53c-.26,1.27-.55,2.59-.88,4-2.23,9.39-4.48,30.76-6.39,54.59A44,44,0,0,0,434.43,167c0-1.25,0-1.95,0-1.95s1.53-28.19,2.43-51.18Z" style="fill:#92E3A9;stroke:#263238;stroke-linecap:round;stroke-linejoin:round"></path><path d="M430.81,104.9s1.63,7.32-7.32,8.54-75.63-19.11-75.63-19.11l11.79,13.42s41.88,11.79,53.68,17.48,13,9.76,13,9.76Z" style="fill:#fff;stroke:#263238;stroke-linecap:round;stroke-linejoin:round"></path><path d="M425.23,146.68s-5.4,4.17-10.28,2.14-61-18.71-61-18.71l-.41,6.51s48.8,16.67,58.15,19.52,12.14,6.15,12.14,6.15Z" style="fill:#fff;stroke:#263238;stroke-linecap:round;stroke-linejoin:round"></path><path d="M422.63,178.17s-25.57-4.95-42.65-9.83-25.62-8.54-25.62-8.54l.82,6.5s25.21,5.29,41.88,11.8,24.53,16.21,24.53,16.21Z" style="fill:#fff;stroke:#263238;stroke-linecap:round;stroke-linejoin:round"></path><path d="M420.73,207.48l-6.59,6.81s-38.23-12.61-45.95-15.86-16.67-6.1-16.67-6.1l2.44,8.13s21.55,6.1,43.1,13,18.71,10.57,21.55,6.91S420.73,207.48,420.73,207.48Z" style="fill:#fff;stroke:#263238;stroke-linecap:round;stroke-linejoin:round"></path><path d="M174.21,214.29s-1.22,41.88.41,46.76,9.76,27.66,80.11,42.7,97.19-.4,97.19-.4l8.95-183-1.22-12.6s-108.17,1.62-150.06-6.92-44.32-19.11-44.32-19.11Z" style="fill:#92E3A9;stroke:#263238;stroke-linecap:round;stroke-linejoin:round"></path><path d="M250.34,270.6c-43.86-7.93-66.19-24.2-76.53-34.78-.1,11.08,0,22.79.81,25.23,1.63,4.88,9.76,27.66,80.11,42.7s97.19-.4,97.19-.4l1.52-31A315.44,315.44,0,0,1,250.34,270.6Z" style="fill:#969696;stroke:#263238;stroke-linecap:round;stroke-linejoin:round"></path><path d="M169,136.43l4.3,63.72c28.24,19.19,61.81,30.09,95.8,34.23a289.2,289.2,0,0,0,62.39.65c6.66-.63,15.32-1,23.92-2.19l2.42-49.49-.11,2.24c-24.16,3.23-66.84,2.66-109.29-1.88-34.45-3.69-62.92-17-77.95-25.39l-.79-11.65" style="fill:#92E3A9;stroke:#263238;stroke-linecap:round;stroke-linejoin:round"></path><path d="M169,136.43l4.3,63.72c28.24,19.19,61.81,30.09,95.8,34.23a289.2,289.2,0,0,0,62.39.65c6.66-.63,15.32-1,23.92-2.19l2.42-49.49-.11,2.24c-24.16,3.23-66.84,2.66-109.29-1.88-34.45-3.69-62.92-17-77.95-25.39l-.79-11.65" style="fill:#fff;stroke:#263238;stroke-linecap:round;stroke-linejoin:round;opacity:0.65"></path><path d="M359.85,141.14c-106.18,10.73-168.41-12.87-192.25-24.89l2.84,42.07c15,8.38,43.5,21.7,77.95,25.39,42.45,4.54,85.13,5.11,109.29,1.88l2.93-60h0Z" style="fill:#969696;stroke:#263238;stroke-linecap:round;stroke-linejoin:round"></path><path d="M359.85,141.14l1-20.79-1.22-12.6s-108.17,1.62-150.06-6.92-44.32-19.11-44.32-19.11l2.33,34.53C191.44,128.27,253.67,151.87,359.85,141.14Z" style="fill:#92E3A9;stroke:#263238;stroke-linecap:round;stroke-linejoin:round"></path><path d="M440.66,134.74c0-4.88-4.88-26.43-1.22-39.45s4.07-28.06,3.26-34.15c-.48-3.56-1.78-4.9-3-5.24C427.19,35,370.1,19.13,301.55,19.13c-77.7,0-140.68,20.33-140.68,45.4,0,0,0,14.9.83,21.41s8.54,104.92,9,111a125.56,125.56,0,0,1,0,17.48c-.41,3.26-1.63,4.48,0,7.32s3.66,2,4.47-1.22-3.66-72.38-4.07-78.07-1.62-42.7-.81-45.14,3.25.4,4.07,8.13.81,34.57,1.22,40.26-1.63,11.79,0,15.45,3.25-.81,3.25-.81-3.25,11.38-2,15.45,3.25,4.07,3.66.81-2.85-69.94-2.44-72.79,4.88-4.06,6.5,6.1.41,32.54.82,39,3.66,8.95,4.06,12.61-2.44,10.57-1.62,16.26,4.88,1.63,5.28-3.66-2.84-61-1.62-65.87,2.44-4.88,6.5,8.94-.81,36.6,3.26,45.14S204,177,202.77,182.32s-.81,11.79,2.85,8.13-1.63-64.25-.41-69.94.41-18.3,5.29-15.46,4.88,17.9,6.51,29.28,1.62,41.89,1.62,45.95-2.44,11-1.22,13.83,5.29,1.22,6.51-3.25.81-48.39,1.63-54.49,2.44-18.3,9.76-15.86,8.53,17.89,7.72,30.9,1.63,41.48.81,45.14.82,6.1,4.48,4.88,3.25-9.35,3.25-15.05-.41-47.17.41-51.64,8.54-3.25,9.76,7.32S263,206.31,263,210.38s2.84,7.72,4.88,2,1.62-64.25,2-69.54,3.25-11,8.13-6.91,3.26,62.62,3.66,66.28,3.66,6.1,6.51,3.66,3.25-7.72,3.25-13,.41-52.46,1.22-60.18,11.39-9.36,14.24-4.07,2,43.92,1.62,48.8,4.88,8.94,7.32,3.66,2.44-12.2,2.44-12.2,0-32.94.82-37,12.2-6.91,12.6,4.07,0,57.74.41,63,5.69,2.44,6.1,0,2.44-44.32,2.44-44.32,1.22-26.44,2.84-29.69,6.51-6.91,9.76-4.47,5.7,15,6.92,12.2,1.22-13.42,2-18.3a18.65,18.65,0,0,0-.68-8.81,13.83,13.83,0,0,0-1.75-5.23c-1.51-2-40.7-47.73-40.7-47.73s101.5,23.11,108.53,30.15L428.72,84a14.6,14.6,0,0,1,3.81,10.12c0,6.51-3.25,34.16-3.66,45.55s-.81,13.83.82,13.42,3.25-2.85,3.25-6.51.41-30.5,1.22-34.56-1.22,46.36-1.22,54.49,2,8.54,3.25,5.69,2-5.29,2-5.29,2-3.25,2-5.69-3.26-16.26-2.44-19.11S440.66,139.62,440.66,134.74Z" style="fill:#263238;stroke:#263238;stroke-linecap:round;stroke-linejoin:round"></path><path d="M245.69,186.67l-1.12,7.68s-2.36,5.2.07,6.24,3.65-2,3.3-4.11S245.69,186.67,245.69,186.67Z" style="fill:#bdbdbd;stroke:#263238;stroke-linecap:round;stroke-linejoin:round"></path><path d="M220.15,176.38,219,184.06s-2.36,5.2.07,6.25,3.65-2,3.3-4.12S220.15,176.38,220.15,176.38Z" style="fill:#bdbdbd;stroke:#263238;stroke-linecap:round;stroke-linejoin:round"></path><path d="M189.19,167l-.79,6.1s-1.67,4.13,0,5,2.58-1.57,2.33-3.26S189.19,167,189.19,167Z" style="fill:#bdbdbd;stroke:#263238;stroke-linecap:round;stroke-linejoin:round"></path><path d="M171.45,209.73l-.79,6.1s-1.67,4.13.06,5,2.58-1.58,2.33-3.27S171.45,209.73,171.45,209.73Z" style="fill:#bdbdbd;stroke:#263238;stroke-linecap:round;stroke-linejoin:round"></path><path d="M203.73,176.2l-.79,6.11s-1.67,4.13.06,5,2.58-1.58,2.33-3.27S203.73,176.2,203.73,176.2Z" style="fill:#bdbdbd;stroke:#263238;stroke-linecap:round;stroke-linejoin:round"></path><path d="M200.9,135s-1.16,18.89-.83,21.71,2.49,1.82,2.65,0S200.9,135,200.9,135Z" style="fill:#bdbdbd;stroke:#263238;stroke-linecap:round;stroke-linejoin:round"></path><path d="M187.65,130.65s-2.16,18.55-1.66,20.54,3,4.47,3.31,2.82S187.65,130.65,187.65,130.65Z" style="fill:#bdbdbd;stroke:#263238;stroke-linecap:round;stroke-linejoin:round"></path><path d="M177.38,169.58c-.5,1,0,9.45,1.32,7.12.72-1.23-.16-9.61-.16-9.61Z" style="fill:#bdbdbd;stroke:#263238;stroke-linecap:round;stroke-linejoin:round"></path><path d="M175.88,154.34s-1.15,4.8-.16,5.8,1.32-.34,1.32-1.83-.16-6.46-.16-6.46Z" style="fill:#bdbdbd;stroke:#263238;stroke-linecap:round;stroke-linejoin:round"></path><path d="M178.69,85s11,7.73,19.52,10.17,17.89-.41,23.58,3.25a30.51,30.51,0,0,0,19.93,4.88c7.32-.81,6.91-3.66,13.42-1.22s31.31,5.7,56.52,5.7,40.67-4.07,43.11-2.44" style="fill:none;stroke:#666;stroke-linecap:round;stroke-linejoin:round"></path><path d="M168.11,72s0,5.29,7.32,9" style="fill:none;stroke:#666;stroke-linecap:round;stroke-linejoin:round"></path><line x1="169.65" y1="146.67" x2="168.43" y2="128.6" style="fill:none;stroke:#263238;stroke-linecap:round;stroke-linejoin:round"></line><path d="M433.5,210.27c-2.87,2-9.27,6.08-13.6,7.57l-1.15,23.93a60.26,60.26,0,0,0,14.12-10.39C433,229,433.25,220.44,433.5,210.27Z" style="fill:#92E3A9;stroke:#263238;stroke-linecap:round;stroke-linejoin:round"></path><path d="M197.41,69.88a4.56,4.56,0,1,1-4.55-4.55A4.56,4.56,0,0,1,197.41,69.88Z" style="fill:#92E3A9;stroke:#263238;stroke-linecap:round;stroke-linejoin:round"></path><path d="M251.48,70.08a4.56,4.56,0,1,1-4.56-4.55A4.56,4.56,0,0,1,251.48,70.08Z" style="fill:#fff;stroke:#263238;stroke-linecap:round;stroke-linejoin:round"></path><path d="M223.85,59.16a4.56,4.56,0,1,1-4.55-4.56A4.55,4.55,0,0,1,223.85,59.16Z" style="fill:#969696;stroke:#263238;stroke-linecap:round;stroke-linejoin:round"></path><path d="M231.74,77.84a4.56,4.56,0,1,1-4.56-4.55A4.56,4.56,0,0,1,231.74,77.84Z" style="fill:#92E3A9;stroke:#263238;stroke-linecap:round;stroke-linejoin:round"></path><path d="M298.49,55.56A4.56,4.56,0,1,1,293.93,51,4.56,4.56,0,0,1,298.49,55.56Z" style="fill:#969696;stroke:#263238;stroke-linecap:round;stroke-linejoin:round"></path><path d="M252.22,43.7a4.56,4.56,0,1,1-4.56-4.56A4.56,4.56,0,0,1,252.22,43.7Z" style="fill:#92E3A9;stroke:#263238;stroke-linecap:round;stroke-linejoin:round"></path><path d="M308.14,90.7a4.56,4.56,0,1,1-4.55-4.55A4.56,4.56,0,0,1,308.14,90.7Z" style="fill:#969696;stroke:#263238;stroke-linecap:round;stroke-linejoin:round"></path><path d="M248.31,89.09a4.56,4.56,0,1,1-4.56-4.55A4.56,4.56,0,0,1,248.31,89.09Z" style="fill:#92E3A9;stroke:#263238;stroke-linecap:round;stroke-linejoin:round"></path><path d="M327,78.13a4.56,4.56,0,1,1-4.56-4.55A4.56,4.56,0,0,1,327,78.13Z" style="fill:#92E3A9;stroke:#263238;stroke-linecap:round;stroke-linejoin:round"></path><path d="M391.88,50.19a4.56,4.56,0,1,1-4.55-4.56A4.55,4.55,0,0,1,391.88,50.19Z" style="fill:#969696;stroke:#263238;stroke-linecap:round;stroke-linejoin:round"></path><path d="M424.44,57.24a4.56,4.56,0,1,1-4.56-4.55A4.56,4.56,0,0,1,424.44,57.24Z" style="fill:#92E3A9;stroke:#263238;stroke-linecap:round;stroke-linejoin:round"></path><path d="M368.09,34.08a4.56,4.56,0,1,1-4.55-4.56A4.56,4.56,0,0,1,368.09,34.08Z" style="fill:#fff;stroke:#263238;stroke-linecap:round;stroke-linejoin:round"></path><path d="M302.35,27.19a4.56,4.56,0,1,1-4.55-4.55A4.56,4.56,0,0,1,302.35,27.19Z" style="fill:#969696;stroke:#263238;stroke-linecap:round;stroke-linejoin:round"></path><path d="M332.41,26.57A4.56,4.56,0,1,1,327.85,22,4.56,4.56,0,0,1,332.41,26.57Z" style="fill:#92E3A9;stroke:#263238;stroke-linecap:round;stroke-linejoin:round"></path><path d="M264.34,27.19a4.56,4.56,0,1,1-4.56-4.55A4.56,4.56,0,0,1,264.34,27.19Z" style="fill:#fff;stroke:#263238;stroke-linecap:round;stroke-linejoin:round"></path><path d="M231.61,39.71a4.56,4.56,0,1,1-4.56-4.55A4.56,4.56,0,0,1,231.61,39.71Z" style="fill:#92E3A9;stroke:#263238;stroke-linecap:round;stroke-linejoin:round"></path><path d="M323.56,40.31A4.56,4.56,0,1,1,319,35.75,4.55,4.55,0,0,1,323.56,40.31Z" style="fill:#92E3A9;stroke:#263238;stroke-linecap:round;stroke-linejoin:round"></path><path d="M275.94,80.65a4.56,4.56,0,1,1-4.55-4.56A4.55,4.55,0,0,1,275.94,80.65Z" style="fill:#92E3A9;stroke:#263238;stroke-linecap:round;stroke-linejoin:round"></path><path d="M282.63,38.6A4.56,4.56,0,1,1,278.08,34,4.55,4.55,0,0,1,282.63,38.6Z" style="fill:#fff;stroke:#263238;stroke-linecap:round;stroke-linejoin:round"></path><path d="M349.69,45.22a4.56,4.56,0,1,1-4.55-4.55A4.56,4.56,0,0,1,349.69,45.22Z" style="fill:#92E3A9;stroke:#263238;stroke-linecap:round;stroke-linejoin:round"></path></g><g id="freepik--cake-piece--inject-41"><ellipse cx="142.58" cy="420.95" rx="106.39" ry="47.94" style="opacity:0.11"></ellipse><ellipse cx="137.54" cy="413.65" rx="114.09" ry="46.47" style="fill:#fff;stroke:#263238;stroke-linecap:round;stroke-linejoin:round"></ellipse><ellipse cx="137.54" cy="413.65" rx="80.1" ry="32.62" style="fill:#fff;stroke:#263238;stroke-linecap:round;stroke-linejoin:round"></ellipse><path d="M185.13,298.57s-1.65,16.29-1.65,20-1.84,38.37.92,57.72,4,41.44,3.38,47.89-1.23,11.67-1.23,11.67-25.18,0-59-8.6S69,412.49,65,411s-7.68-1.23-6.75-5.53,3.37-8.9,4-10.74,1.53-38.38,2.76-51.27,2.18-26.65,3.07-31.63a46.14,46.14,0,0,0,.61-10.44c0-3.07,2.77-19.34,4.61-20s103.46,14.12,103.46,14.12S183.41,296.7,185.13,298.57Z" style="fill:#fff;stroke:#263238;stroke-linecap:round;stroke-linejoin:round"></path><path d="M74.93,285.07s112.45,17.24,110.2,13.5-24.74-32.24-33-43.48-12-17.25-40.49-7.5-45,23.24-45,30-2.55,39.51,2.24,29.23A68.88,68.88,0,0,0,74.93,285.07Z" style="fill:#263238;stroke:#263238;stroke-linecap:round;stroke-linejoin:round"></path><path d="M73.26,281.4c-1.3.43-3.06,8.67-4,14.56a3.08,3.08,0,0,1,3.67.48c2.77,2.15,5.53,5.22,8.29,5.22s8.91-1.84,10.44-1.53,40.53,9.21,48.2,10.74,23.33,4.3,23.33,4.3l20.27,3.38c0-3.69,1.65-20,1.65-20-1.72-1.87-8.41-3.05-8.41-3.05S75.1,280.78,73.26,281.4Z" style="fill:#92E3A9;stroke:#263238;stroke-linecap:round;stroke-linejoin:round"></path><path d="M183.78,325.61s-7.67,1.23-12.58,1.84-15.66-.61-15.66-.61-13.82-4-25.18-8-26.09-3.68-31.31-4.6-11.36-3.07-16.89-4.3-9.51-1.53-11,.92.31,11.67,2.46,13.82,38.68,8.59,49.73,12,56.8,11,56.8,11l2.46-.3Z" style="fill:#969696;stroke:#263238;stroke-linecap:round;stroke-linejoin:round"></path><path d="M183.19,355.16s-17.78.81-26.67-1.61-36.09-7.81-39.05-8.35-21.55.54-29.09-.54-15.62-5.12-16.7-2.16,1.62,24,1.62,24-1.89,2.7,23.7,3.78,58.45,8.08,58.45,8.08l29.89,6.73Z" style="fill:#92E3A9;stroke:#263238;stroke-linecap:round;stroke-linejoin:round"></path><path d="M183.19,355.16s-17.78.81-26.67-1.61-36.09-7.81-39.05-8.35-21.55.54-29.09-.54-15.62-5.12-16.7-2.16,1.62,24,1.62,24-1.89,2.7,23.7,3.78,58.45,8.08,58.45,8.08l29.89,6.73Z" style="fill:#fff;stroke:#263238;stroke-linecap:round;stroke-linejoin:round;opacity:0.65"></path><path d="M73.84,373.48s-1.08,14.27-.81,16.7,9.43,4,9.43,4,74.06,13.46,75.68,13.73,23.7,5.66,25.32,5.93,4,1.08,4.31-.81S185.88,391,185.88,391s-12.39-1.61-28.82-4.57-50.36-11.59-58.44-11.86S73.84,371.59,73.84,373.48Z" style="fill:#92E3A9;stroke:#263238;stroke-linecap:round;stroke-linejoin:round"></path><path d="M120.43,406.61C103.46,403.64,73,395,73,395s0,8.08-.54,10.78-1.89,4.85-1.08,5.92a5.7,5.7,0,0,1,.68,1.33c10.38,2.8,30.5,7.81,55.51,14.18,33.77,8.6,59,8.6,59,8.6s.61-5.22,1.23-11.67c.1-1.08.15-2.61.15-4.49l-.7-1.21S137.4,409.57,120.43,406.61Z" style="fill:#969696;stroke:#263238;stroke-linecap:round;stroke-linejoin:round"></path><path d="M119.29,273.34a4.74,4.74,0,1,1-4.74-4.75A4.74,4.74,0,0,1,119.29,273.34Z" style="fill:#92E3A9;stroke:#263238;stroke-linecap:round;stroke-linejoin:round"></path><circle cx="127.17" cy="256.15" r="4.74" style="fill:#fff;stroke:#263238;stroke-linecap:round;stroke-linejoin:round"></circle><path d="M97.83,269.19a4.74,4.74,0,1,1-4.74-4.74A4.74,4.74,0,0,1,97.83,269.19Z" style="fill:#92E3A9;stroke:#263238;stroke-linecap:round;stroke-linejoin:round"></path><path d="M151,268a4.75,4.75,0,1,1-4.74-4.75A4.74,4.74,0,0,1,151,268Z" style="fill:#fff;stroke:#263238;stroke-linecap:round;stroke-linejoin:round"></path></g><g id="freepik--Fork--inject-41"><path d="M222.18,407.15s12.1,6.2,19.85,8.38,8.68,5.27,7.13,8.06S283,445,311.51,452.75s36.67,9.4,36.67,9.4,3.34-4.75-8.14-11.26-70.1-20.17-77.23-23.27a31.31,31.31,0,0,1-11.48-9s3.38-2.52.3-5-11.46-5.57-11.46-5.57Z" style="opacity:0.11"></path><path d="M360.19,454.56c-1.72-4.16-31.36-13.23-44.58-22.05S276.66,409,269.8,407s-15.92-1.47-17.63-1.47-21.27-12.1-26.44-17.26c-21-20.95-24.26-28.5-25-29.07l-2.16.73c7.7,11,20,27.37,30.92,36.29a1.27,1.27,0,0,1-.81,2.25,1.22,1.22,0,0,1-.8-.29c-11.4-9.33-24-26.16-31.73-37.23l-1.6.81c7.7,11,20,27.33,30.88,36.23.54.44,1,1,.56,1.49a1.29,1.29,0,0,1-1,.46,1.24,1.24,0,0,1-.81-.29c-11.37-9.32-24-26.11-31.68-37.18l-1.8.91c7.7,11,20,27.29,30.84,36.17.54.45,1.2.85.76,1.4a1.31,1.31,0,0,1-1,.46,1.22,1.22,0,0,1-.8-.29c-11.36-9.3-23.93-26.05-31.65-37.12l-2.08.87S207,392.8,216.59,402c10.27,9.84,11.4,11.7,24.8,9.71,6.23-.92,16.16-5.63,27.43-1.47s43.11,29.64,49.24,34.54,21.06,16.9,30.12,17.39S361.9,458.72,360.19,454.56Z" style="fill:#969696;stroke:#263238;stroke-linecap:round;stroke-linejoin:round"></path><path d="M331.92,453c.58.4,1.1.76,1.57,1.06,9.06,5.88,14.94,6.12,19.35,5.39s7.35-4.9,7.35-4.9" style="fill:none;stroke:#fff;stroke-linecap:round;stroke-linejoin:round"></path><path d="M239.43,410c7.84-1.47,23.51-6.61,38.21,2.69,12.59,8,37.94,28.36,50.65,37.73" style="fill:none;stroke:#fff;stroke-linecap:round;stroke-linejoin:round"></path><path d="M230.12,408s.83,1.93,4.55,2.27" style="fill:none;stroke:#fff;stroke-linecap:round;stroke-linejoin:round"></path></g></svg>
